<svg xmlns="http://www.w3.org/2000/svg" xmlns:xlink="http://www.w3.org/1999/xlink" version="1.1" width="1000" height="1000" viewBox="0 0 1000 1000" xml:space="preserve">
<desc>Created with Fabric.js 3.5.0</desc>
<defs>
</defs>
<rect x="0" y="0" width="100%" height="100%" fill="#ffffff"/>
<g transform="matrix(1 0 0 1 504.7281 500)" style="" id="240839">
		
<path xml:space="preserve" font-family="Galada" font-size="131" style="stroke: none; stroke-width: 0; stroke-dasharray: none; stroke-linecap: butt; stroke-dashoffset: 0; stroke-linejoin: miter; stroke-miterlimit: 4; is-custom-font: none; font-file-url: none; fill: rgb(228,228,228); fill-rule: nonzero; opacity: 1; white-space: pre;" d="M-289.58-12.16L-281.98-47.80Q-287.35-44.91-293.37-36.99Q-299.40-29.06-305.56-16.75L-305.56-16.75Q-300.84-15.83-296.85-14.65Q-292.85-13.47-289.58-12.16L-289.58-12.16ZM-271.76-57.10L-271.76-57.10Q-269.01-57.10-266.26-56.64Q-263.51-56.18-261.41-55.26L-261.41-55.26L-281.98 41.15L-300.84 41.15L-290.75-6.40Q-295.34-8.50-299.40-9.61Q-303.46-10.72-308.31-11.12L-308.31-11.12Q-315.78 5.13-320.56 21.90Q-325.34 38.66-325.34 48.75L-325.34 48.75Q-325.34 51.11-324.88 52.88Q-324.42 54.65-323.50 56.09L-323.50 56.09Q-333.46 56.09-337.26 52.68Q-341.06 49.27-341.06 42.20L-341.06 42.20Q-341.06 33.42-335.75 18.75Q-330.45 4.08-321.80-11.12L-321.80-11.12Q-328.48-10.72-332.22-9.02Q-335.95-7.32-337.13-4.30L-337.13-4.30Q-336.60-4.30-336.01-2.93Q-335.43-1.55-335.43-0.24L-335.43-0.24Q-335.43 1.98-337.52 3.42Q-339.62 4.87-342.76 4.87L-342.76 4.87Q-346.43 4.87-348.66 2.83Q-350.88 0.80-350.88-2.73L-350.88-2.73Q-350.88-9.54-343.22-14.20Q-335.56-18.85-324.16-18.85L-324.16-18.85Q-322.85-18.85-321.15-18.78Q-319.44-18.71-317.35-18.45L-317.35-18.45Q-305.82-36.66-293.90-46.88Q-281.98-57.10-271.76-57.10ZM-250.54-47.93L-231.15-50.55L-240.97-4.44L-215.69-24.35L-202.72-24.35L-228.92-6.14Q-227.09-6.40-226.24-6.53Q-225.39-6.66-224.60-6.66L-224.60-6.66Q-217.92-6.66-214.05-2.47Q-210.19 1.72-210.19 8.66L-210.19 8.66Q-210.19 9.97-210.32 11.22Q-210.45 12.46-210.71 13.64L-210.71 13.64L-212.15 20.19Q-212.42 21.76-212.61 22.81Q-212.81 23.86-212.81 24.38L-212.81 24.38Q-212.81 26.87-211.56 28.05Q-210.32 29.23-207.70 29.23L-207.70 29.23Q-204.43 29.23-202.07 27.00Q-199.71 24.78-196.70 17.70L-196.70 17.70L-191.19 17.70Q-195.26 29.76-201.28 35.85Q-207.31 41.94-215.30 41.94L-215.30 41.94Q-223.29 41.94-227.55 38.07Q-231.80 34.21-231.80 27.00L-231.80 27.00Q-231.80 25.43-231.61 23.73Q-231.41 22.03-231.02 20.19L-231.02 20.19L-229.97 15.08Q-229.71 13.90-229.58 12.73Q-229.45 11.55-229.45 10.24L-229.45 10.24Q-229.45 7.09-230.63 5.52Q-231.80 3.95-234.16 3.95L-234.16 3.95Q-236.13 3.95-238.42 5.06Q-240.71 6.18-243.86 8.80L-243.86 8.80L-250.67 41.15L-269.53 41.15L-250.54-47.93ZM-155.56 19.28L-155.56 19.28Q-155.56 20.85-155.69 22.03Q-155.82 23.21-156.09 24.25L-156.09 24.25Q-153.47 22.68-150.98 20.98Q-148.49 19.28-146.65 17.70L-146.65 17.70L-141.15 17.70Q-145.21 22.42-150.13 26.41Q-155.04 30.41-161.20 34.08L-161.20 34.08Q-164.73 37.88-170.23 39.91Q-175.74 41.94-181.76 41.94L-181.76 41.94Q-190.54 41.94-195.71 37.16Q-200.89 32.38-200.89 25.17L-200.89 25.17Q-200.89 21.11-198.92 17.77Q-196.96 14.43-193.95 12.99L-193.95 12.99Q-189.49 5.00-185.63-4.11Q-181.76-13.21-177.83-25.79L-177.83-25.79L-158.44-28.41Q-158.05-18.58-157.53-10.46Q-157.00-2.34-156.22 7.22L-156.22 7.22Q-155.82 12.73-155.69 14.95Q-155.56 17.18-155.56 19.28ZM-177.05-11.64L-177.05-11.64Q-178.75-6.27-181.17-0.44Q-183.60 5.39-187.66 13.12L-187.66 13.12Q-186.22 13.77-185.43 14.95Q-184.64 16.13-184.64 17.70L-184.64 17.70Q-184.64 20.19-186.35 22.16Q-188.05 24.12-190.41 24.12L-190.41 24.12Q-191.72 24.12-192.64 23.66Q-193.55 23.21-193.95 22.42L-193.95 22.42Q-193.95 27.27-192.05 29.43Q-190.15 31.59-185.95 31.59L-185.95 31.59Q-180.58 31.59-177.57 28.45Q-174.56 25.30-174.56 19.41L-174.56 19.41Q-174.56 17.57-174.69 15.67Q-174.82 13.77-175.21 9.32L-175.21 9.32Q-175.87 3.16-176.26-1.55Q-176.65-6.27-177.05-11.64ZM-96.48-12.95L-96.48-12.95Q-96.48-2.08-105.39 5.98Q-114.30 14.04-126.61 14.69L-126.61 14.69Q-126.74 16.92-126.81 18.03Q-126.87 19.14-126.87 19.93L-126.87 19.93Q-126.87 25.96-124.84 28.45Q-122.81 30.93-117.44 30.93L-117.44 30.93Q-111.28 30.93-106.11 28.12Q-100.94 25.30-94.25 17.70L-94.25 17.70L-89.80 17.70Q-97.40 30.02-106.31 35.98Q-115.21 41.94-125.83 41.94L-125.83 41.94Q-135.91 41.94-141.09 36.70Q-146.26 31.46-146.26 21.11L-146.26 21.11Q-146.26 13.64-143.90 5.26Q-141.55-3.13-137.62-9.68L-137.62-9.68Q-132.77-17.54-126.02-21.53Q-119.28-25.53-110.89-25.53L-110.89-25.53Q-103.69-25.53-100.08-22.45Q-96.48-19.37-96.48-12.95ZM-109.84-18.58L-109.84-18.58Q-114.30-18.58-118.82-10.66Q-123.34-2.73-125.56 8.40L-125.56 8.40Q-117.97 7.88-112.27 1.39Q-106.57-5.09-106.57-13.21L-106.57-13.21Q-106.57-15.96-107.35-17.27Q-108.14-18.58-109.84-18.58ZM-55.61 19.28L-55.61 19.28Q-55.61 20.85-55.74 22.03Q-55.87 23.21-56.13 24.25L-56.13 24.25Q-53.51 22.68-51.02 20.98Q-48.54 19.28-46.70 17.70L-46.70 17.70L-41.20 17.70Q-45.26 22.42-50.17 26.41Q-55.09 30.41-61.24 34.08L-61.24 34.08Q-64.78 37.88-70.28 39.91Q-75.78 41.94-81.81 41.94L-81.81 41.94Q-90.59 41.94-95.76 37.16Q-100.94 32.38-100.94 25.17L-100.94 25.17Q-100.94 21.11-98.97 17.77Q-97.01 14.43-93.99 12.99L-93.99 12.99Q-89.54 5.00-85.67-4.11Q-81.81-13.21-77.88-25.79L-77.88-25.79L-58.49-28.41Q-58.10-18.58-57.57-10.46Q-57.05-2.34-56.26 7.22L-56.26 7.22Q-55.87 12.73-55.74 14.95Q-55.61 17.18-55.61 19.28ZM-77.09-11.64L-77.09-11.64Q-78.80-6.27-81.22-0.44Q-83.64 5.39-87.70 13.12L-87.70 13.12Q-86.26 13.77-85.48 14.95Q-84.69 16.13-84.69 17.70L-84.69 17.70Q-84.69 20.19-86.39 22.16Q-88.10 24.12-90.46 24.12L-90.46 24.12Q-91.77 24.12-92.68 23.66Q-93.60 23.21-93.99 22.42L-93.99 22.42Q-93.99 27.27-92.09 29.43Q-90.19 31.59-86.00 31.59L-86.00 31.59Q-80.63 31.59-77.62 28.45Q-74.60 25.30-74.60 19.41L-74.60 19.41Q-74.60 17.57-74.74 15.67Q-74.87 13.77-75.26 9.32L-75.26 9.32Q-75.91 3.16-76.31-1.55Q-76.70-6.27-77.09-11.64ZM-12.38 19.28L-12.38 19.28Q-12.38 20.85-12.51 22.03Q-12.64 23.21-12.90 24.25L-12.90 24.25Q-10.28 22.68-7.79 20.98Q-5.31 19.28-3.47 17.70L-3.47 17.70L2.03 17.70Q-2.03 22.42-6.94 26.41Q-11.86 30.41-18.01 34.08L-18.01 34.08Q-21.55 37.88-27.05 39.91Q-32.55 41.94-38.58 41.94L-38.58 41.94Q-47.36 41.94-52.53 37.16Q-57.71 32.38-57.71 25.17L-57.71 25.17Q-57.71 21.11-55.74 17.77Q-53.78 14.43-50.76 12.99L-50.76 12.99Q-46.31 5.00-42.44-4.11Q-38.58-13.21-34.65-25.79L-34.65-25.79L-15.26-28.41Q-14.87-18.58-14.34-10.46Q-13.82-2.34-13.03 7.22L-13.03 7.22Q-12.64 12.73-12.51 14.95Q-12.38 17.18-12.38 19.28ZM-33.86-11.64L-33.86-11.64Q-35.57-6.27-37.99-0.44Q-40.41 5.39-44.47 13.12L-44.47 13.12Q-43.03 13.77-42.25 14.95Q-41.46 16.13-41.46 17.70L-41.46 17.70Q-41.46 20.19-43.16 22.16Q-44.87 24.12-47.23 24.12L-47.23 24.12Q-48.54 24.12-49.45 23.66Q-50.37 23.21-50.76 22.42L-50.76 22.42Q-50.76 27.27-48.86 29.43Q-46.96 31.59-42.77 31.59L-42.77 31.59Q-37.40 31.59-34.39 28.45Q-31.37 25.30-31.37 19.41L-31.37 19.41Q-31.37 17.57-31.51 15.67Q-31.64 13.77-32.03 9.32L-32.03 9.32Q-32.68 3.16-33.08-1.55Q-33.47-6.27-33.86-11.64ZM82.60 13.77L111.42-55.26L130.28-55.26L116.52 41.15L97.66 41.15L106.04-17.67L81.42 41.15L63.47 41.15L66.09-17.93L44.21 41.15L33.73 41.15L67.01-48.84Q56.92-45.44 51.55-37.84Q46.18-30.24 46.18-19.37L46.18-19.37Q46.18-16.75 46.51-14.85Q46.83-12.95 47.62-11.38L47.62-11.38Q47.88-10.85 47.95-10.66Q48.01-10.46 48.01-10.33L48.01-10.33Q40.94-10.33 37.47-13.28Q33.99-16.23 33.99-22.25L33.99-22.25Q33.99-28.54 37.86-35.02Q41.72-41.51 48.54-46.88L48.54-46.88Q54.69-51.73 61.77-54.41Q68.84-57.10 75.65-57.10L75.65-57.10Q78.14-57.10 80.70-56.64Q83.25-56.18 85.61-55.26L85.61-55.26L82.60 13.77ZM176.13-12.95L176.13-12.95Q176.13-2.08 167.22 5.98Q158.31 14.04 146.00 14.69L146.00 14.69Q145.87 16.92 145.80 18.03Q145.74 19.14 145.74 19.93L145.74 19.93Q145.74 25.96 147.77 28.45Q149.80 30.93 155.17 30.93L155.17 30.93Q161.33 30.93 166.50 28.12Q171.68 25.30 178.36 17.70L178.36 17.70L182.81 17.70Q175.21 30.02 166.30 35.98Q157.40 41.94 146.79 41.94L146.79 41.94Q136.70 41.94 131.52 36.70Q126.35 31.46 126.35 21.11L126.35 21.11Q126.35 13.64 128.71 5.26Q131.07-3.13 135.00-9.68L135.00-9.68Q139.84-17.54 146.59-21.53Q153.34-25.53 161.72-25.53L161.72-25.53Q168.92-25.53 172.53-22.45Q176.13-19.37 176.13-12.95ZM162.77-18.58L162.77-18.58Q158.31-18.58 153.79-10.66Q149.27-2.73 147.05 8.40L147.05 8.40Q154.65 7.88 160.34 1.39Q166.04-5.09 166.04-13.21L166.04-13.21Q166.04-15.96 165.26-17.27Q164.47-18.58 162.77-18.58ZM196.83 19.01L196.83 19.01Q196.83 24.12 198.27 26.68Q199.71 29.23 203.38 29.23L203.38 29.23Q206.65 29.23 209.80 26.15Q212.94 23.07 214.12 18.36L214.12 18.36L214.12 17.70L220.54-12.30Q220.15-14.39 218.77-15.64Q217.39-16.88 215.17-16.88L215.17-16.88Q207.96-16.88 202.40-4.83Q196.83 7.22 196.83 19.01ZM221.72-18.32L221.72-18.32L221.72-17.80L228.14-47.93L247.52-50.55L232.46 20.19Q232.20 21.37 232.07 22.35Q231.94 23.34 231.94 24.38L231.94 24.38Q231.94 27.00 233.18 28.12Q234.42 29.23 237.31 29.23L237.31 29.23Q240.71 29.23 243.46 26.22Q246.21 23.21 247.92 17.70L247.92 17.70L253.42 17.70Q249.36 29.36 242.87 35.26Q236.39 41.15 227.09 41.15L227.09 41.15Q221.72 41.15 218.38 38.20Q215.04 35.26 214.25 29.89L214.25 29.89Q210.32 35.91 205.47 38.93Q200.63 41.94 194.86 41.94L194.86 41.94Q186.74 41.94 182.09 36.44Q177.44 30.93 177.44 20.85L177.44 20.85Q177.44 13.51 179.67 5.52Q181.89-2.47 185.82-9.02L185.82-9.02Q190.67-16.75 197.09-20.88Q203.51-25.00 211.11-25.00L211.11-25.00Q216.22-25.00 218.97-23.23Q221.72-21.47 221.72-18.32ZM280.54-41.77L280.54-41.77Q280.54-37.45 277.46-34.43Q274.38-31.42 270.06-31.42L270.06-31.42Q265.73-31.42 262.72-34.43Q259.71-37.45 259.71-41.77L259.71-41.77Q259.71-46.09 262.72-49.17Q265.73-52.25 270.06-52.25L270.06-52.25Q274.38-52.25 277.46-49.17Q280.54-46.09 280.54-41.77ZM247.13 26.22L247.13 26.22Q247.13 24.52 247.39 22.35Q247.66 20.19 248.18 17.70L248.18 17.70L257.09-24.35L275.95-24.35L266.52 20.19Q266.26 21.37 266.13 22.35Q266.00 23.34 266.00 24.38L266.00 24.38Q266.00 27.00 267.24 28.12Q268.48 29.23 271.37 29.23L271.37 29.23Q275.03 29.23 278.31 26.02Q281.58 22.81 283.16 17.70L283.16 17.70L288.66 17.70Q284.47 29.62 277.39 35.78Q270.32 41.94 261.15 41.94L261.15 41.94Q254.60 41.94 250.87 37.81Q247.13 33.69 247.13 26.22ZM325.73-18.32L325.73-18.32L325.73-17.40L327.17-24.35L346.04-24.35L336.60 20.19Q336.34 21.37 336.21 22.35Q336.08 23.34 336.08 24.38L336.08 24.38Q336.08 27.27 337.39 28.64Q338.70 30.02 341.45 30.02L341.45 30.02Q344.86 30.02 347.61 26.81Q350.36 23.60 352.06 17.70L352.06 17.70L357.56 17.70Q353.37 29.76 346.69 35.85Q340.01 41.94 331.23 41.94L331.23 41.94Q325.60 41.94 322.26 38.79Q318.92 35.65 318.40 29.89L318.40 29.89Q314.33 35.91 309.42 38.93Q304.51 41.94 298.88 41.94L298.88 41.94Q290.75 41.94 286.10 36.44Q281.45 30.93 281.45 20.85L281.45 20.85Q281.45 13.51 283.68 5.52Q285.91-2.47 289.84-9.02L289.84-9.02Q294.68-16.75 301.10-20.88Q307.52-25.00 315.12-25.00L315.12-25.00Q320.23-25.00 322.98-23.23Q325.73-21.47 325.73-18.32ZM318.26 17.70L324.55-11.90Q324.55-13.87 323.11-15.37Q321.67-16.88 319.18-16.88L319.18-16.88Q311.98-16.88 306.41-4.83Q300.84 7.22 300.84 19.01L300.84 19.01Q300.84 24.12 302.28 26.68Q303.72 29.23 307.39 29.23L307.39 29.23Q310.80 29.23 314.01 25.96Q317.22 22.68 318.26 17.70L318.26 17.70Z"/></g>
</svg>