<svg xmlns="http://www.w3.org/2000/svg" xmlns:xlink="http://www.w3.org/1999/xlink" version="1.1" width="1000" height="1000" viewBox="0 0 1000 1000" xml:space="preserve">
<desc>Created with Fabric.js 3.5.0</desc>
<defs>
</defs>
<rect x="0" y="0" width="100%" height="100%" fill="rgba(255,255,255,0)"/>
<g transform="matrix(1 0 0 1 512.2424 507.62)" style="" id="240839">
		
<path xml:space="preserve" font-family="Galada" font-size="48" style="stroke: none; stroke-width: 0; stroke-dasharray: none; stroke-linecap: butt; stroke-dashoffset: 0; stroke-linejoin: miter; stroke-miterlimit: 4; is-custom-font: none; font-file-url: none; fill: rgb(228,228,228); fill-rule: nonzero; opacity: 1; white-space: pre;" d="M-106.10-4.46L-103.32-17.51Q-105.29-16.46-107.50-13.55Q-109.70-10.65-111.96-6.14L-111.96-6.14Q-110.23-5.80-108.77-5.37Q-107.30-4.94-106.10-4.46L-106.10-4.46ZM-99.58-20.92L-99.58-20.92Q-98.57-20.92-97.56-20.75Q-96.55-20.59-95.78-20.25L-95.78-20.25L-103.32 15.08L-110.23 15.08L-106.54-2.35Q-108.22-3.11-109.70-3.52Q-111.19-3.93-112.97-4.07L-112.97-4.07Q-115.70 1.88-117.46 8.02Q-119.21 14.17-119.21 17.86L-119.21 17.86Q-119.21 18.73-119.04 19.37Q-118.87 20.02-118.54 20.55L-118.54 20.55Q-122.18 20.55-123.58 19.30Q-124.97 18.05-124.97 15.46L-124.97 15.46Q-124.97 12.25-123.02 6.87Q-121.08 1.49-117.91-4.07L-117.91-4.07Q-120.36-3.93-121.73-3.31Q-123.10-2.68-123.53-1.58L-123.53-1.58Q-123.34-1.58-123.12-1.07Q-122.90-0.57-122.90-0.09L-122.90-0.09Q-122.90 0.73-123.67 1.25Q-124.44 1.78-125.59 1.78L-125.59 1.78Q-126.94 1.78-127.75 1.04Q-128.57 0.29-128.57-1.00L-128.57-1.00Q-128.57-3.50-125.76-5.20Q-122.95-6.91-118.78-6.91L-118.78-6.91Q-118.30-6.91-117.67-6.88Q-117.05-6.86-116.28-6.76L-116.28-6.76Q-112.06-13.43-107.69-17.18Q-103.32-20.92-99.58-20.92ZM-91.80-17.56L-84.70-18.52L-88.30-1.63L-79.03-8.92L-74.28-8.92L-83.88-2.25Q-83.21-2.35-82.90-2.39Q-82.58-2.44-82.30-2.44L-82.30-2.44Q-79.85-2.44-78.43-0.91Q-77.02 0.63-77.02 3.17L-77.02 3.17Q-77.02 3.65-77.06 4.11Q-77.11 4.57-77.21 5.00L-77.21 5.00L-77.74 7.40Q-77.83 7.97-77.90 8.36Q-77.98 8.74-77.98 8.93L-77.98 8.93Q-77.98 9.85-77.52 10.28Q-77.06 10.71-76.10 10.71L-76.10 10.71Q-74.90 10.71-74.04 9.89Q-73.18 9.08-72.07 6.49L-72.07 6.49L-70.06 6.49Q-71.54 10.90-73.75 13.13Q-75.96 15.37-78.89 15.37L-78.89 15.37Q-81.82 15.37-83.38 13.95Q-84.94 12.53-84.94 9.89L-84.94 9.89Q-84.94 9.32-84.86 8.69Q-84.79 8.07-84.65 7.40L-84.65 7.40L-84.26 5.53Q-84.17 5.09-84.12 4.66Q-84.07 4.23-84.07 3.75L-84.07 3.75Q-84.07 2.60-84.50 2.02Q-84.94 1.45-85.80 1.45L-85.80 1.45Q-86.52 1.45-87.36 1.85Q-88.20 2.26-89.35 3.22L-89.35 3.22L-91.85 15.08L-98.76 15.08L-91.80-17.56ZM-57 7.06L-57 7.06Q-57 7.64-57.05 8.07Q-57.10 8.50-57.19 8.89L-57.19 8.89Q-56.23 8.31-55.32 7.69Q-54.41 7.06-53.74 6.49L-53.74 6.49L-51.72 6.49Q-53.21 8.21-55.01 9.68Q-56.81 11.14-59.06 12.49L-59.06 12.49Q-60.36 13.88-62.38 14.62Q-64.39 15.37-66.60 15.37L-66.60 15.37Q-69.82 15.37-71.71 13.61Q-73.61 11.86-73.61 9.22L-73.61 9.22Q-73.61 7.73-72.89 6.51Q-72.17 5.29-71.06 4.76L-71.06 4.76Q-69.43 1.83-68.02-1.51Q-66.60-4.84-65.16-9.45L-65.16-9.45L-58.06-10.41Q-57.91-6.81-57.72-3.83Q-57.53-0.86-57.24 2.65L-57.24 2.65Q-57.10 4.66-57.05 5.48Q-57 6.29-57 7.06ZM-64.87-4.27L-64.87-4.27Q-65.50-2.30-66.38-0.16Q-67.27 1.97-68.76 4.81L-68.76 4.81Q-68.23 5.05-67.94 5.48Q-67.66 5.91-67.66 6.49L-67.66 6.49Q-67.66 7.40-68.28 8.12Q-68.90 8.84-69.77 8.84L-69.77 8.84Q-70.25 8.84-70.58 8.67Q-70.92 8.50-71.06 8.21L-71.06 8.21Q-71.06 9.99-70.37 10.78Q-69.67 11.57-68.14 11.57L-68.14 11.57Q-66.17 11.57-65.06 10.42Q-63.96 9.27-63.96 7.11L-63.96 7.11Q-63.96 6.44-64.01 5.74Q-64.06 5.05-64.20 3.41L-64.20 3.41Q-64.44 1.16-64.58-0.57Q-64.73-2.30-64.87-4.27ZM-35.35-4.75L-35.35-4.75Q-35.35-0.76-38.62 2.19Q-41.88 5.14-46.39 5.38L-46.39 5.38Q-46.44 6.20-46.46 6.61Q-46.49 7.01-46.49 7.30L-46.49 7.30Q-46.49 9.51-45.74 10.42Q-45 11.33-43.03 11.33L-43.03 11.33Q-40.78 11.33-38.88 10.30Q-36.98 9.27-34.54 6.49L-34.54 6.49L-32.90 6.49Q-35.69 11.00-38.95 13.18Q-42.22 15.37-46.10 15.37L-46.10 15.37Q-49.80 15.37-51.70 13.45Q-53.59 11.53-53.59 7.73L-53.59 7.73Q-53.59 5.00-52.73 1.93Q-51.86-1.15-50.42-3.55L-50.42-3.55Q-48.65-6.43-46.18-7.89Q-43.70-9.35-40.63-9.35L-40.63-9.35Q-37.99-9.35-36.67-8.23Q-35.35-7.10-35.35-4.75ZM-40.25-6.81L-40.25-6.81Q-41.88-6.81-43.54-3.91Q-45.19-1.00-46.01 3.08L-46.01 3.08Q-43.22 2.89-41.14 0.51Q-39.05-1.87-39.05-4.84L-39.05-4.84Q-39.05-5.85-39.34-6.33Q-39.62-6.81-40.25-6.81ZM-20.38 7.06L-20.38 7.06Q-20.38 7.64-20.42 8.07Q-20.47 8.50-20.57 8.89L-20.57 8.89Q-19.61 8.31-18.70 7.69Q-17.78 7.06-17.11 6.49L-17.11 6.49L-15.10 6.49Q-16.58 8.21-18.38 9.68Q-20.18 11.14-22.44 12.49L-22.44 12.49Q-23.74 13.88-25.75 14.62Q-27.77 15.37-29.98 15.37L-29.98 15.37Q-33.19 15.37-35.09 13.61Q-36.98 11.86-36.98 9.22L-36.98 9.22Q-36.98 7.73-36.26 6.51Q-35.54 5.29-34.44 4.76L-34.44 4.76Q-32.81 1.83-31.39-1.51Q-29.98-4.84-28.54-9.45L-28.54-9.45L-21.43-10.41Q-21.29-6.81-21.10-3.83Q-20.90-0.86-20.62 2.65L-20.62 2.65Q-20.47 4.66-20.42 5.48Q-20.38 6.29-20.38 7.06ZM-28.25-4.27L-28.25-4.27Q-28.87-2.30-29.76-0.16Q-30.65 1.97-32.14 4.81L-32.14 4.81Q-31.61 5.05-31.32 5.48Q-31.03 5.91-31.03 6.49L-31.03 6.49Q-31.03 7.40-31.66 8.12Q-32.28 8.84-33.14 8.84L-33.14 8.84Q-33.62 8.84-33.96 8.67Q-34.30 8.50-34.44 8.21L-34.44 8.21Q-34.44 9.99-33.74 10.78Q-33.05 11.57-31.51 11.57L-31.51 11.57Q-29.54 11.57-28.44 10.42Q-27.34 9.27-27.34 7.11L-27.34 7.11Q-27.34 6.44-27.38 5.74Q-27.43 5.05-27.58 3.41L-27.58 3.41Q-27.82 1.16-27.96-0.57Q-28.10-2.30-28.25-4.27ZM-4.54 7.06L-4.54 7.06Q-4.54 7.64-4.58 8.07Q-4.63 8.50-4.73 8.89L-4.73 8.89Q-3.77 8.31-2.86 7.69Q-1.94 7.06-1.27 6.49L-1.27 6.49L0.74 6.49Q-0.74 8.21-2.54 9.68Q-4.34 11.14-6.60 12.49L-6.60 12.49Q-7.90 13.88-9.91 14.62Q-11.93 15.37-14.14 15.37L-14.14 15.37Q-17.35 15.37-19.25 13.61Q-21.14 11.86-21.14 9.22L-21.14 9.22Q-21.14 7.73-20.42 6.51Q-19.70 5.29-18.60 4.76L-18.60 4.76Q-16.97 1.83-15.55-1.51Q-14.14-4.84-12.70-9.45L-12.70-9.45L-5.59-10.41Q-5.45-6.81-5.26-3.83Q-5.06-0.86-4.78 2.65L-4.78 2.65Q-4.63 4.66-4.58 5.48Q-4.54 6.29-4.54 7.06ZM-12.41-4.27L-12.41-4.27Q-13.03-2.30-13.92-0.16Q-14.81 1.97-16.30 4.81L-16.30 4.81Q-15.77 5.05-15.48 5.48Q-15.19 5.91-15.19 6.49L-15.19 6.49Q-15.19 7.40-15.82 8.12Q-16.44 8.84-17.30 8.84L-17.30 8.84Q-17.78 8.84-18.12 8.67Q-18.46 8.50-18.60 8.21L-18.60 8.21Q-18.60 9.99-17.90 10.78Q-17.21 11.57-15.67 11.57L-15.67 11.57Q-13.70 11.57-12.60 10.42Q-11.50 9.27-11.50 7.11L-11.50 7.11Q-11.50 6.44-11.54 5.74Q-11.59 5.05-11.74 3.41L-11.74 3.41Q-11.98 1.16-12.12-0.57Q-12.26-2.30-12.41-4.27ZM30.26 5.05L40.82-20.25L47.74-20.25L42.70 15.08L35.78 15.08L38.86-6.47L29.83 15.08L23.26 15.08L24.22-6.57L16.20 15.08L12.36 15.08L24.55-17.90Q20.86-16.65 18.89-13.87Q16.92-11.08 16.92-7.10L16.92-7.10Q16.92-6.14 17.04-5.44Q17.16-4.75 17.45-4.17L17.45-4.17Q17.54-3.98 17.57-3.91Q17.59-3.83 17.59-3.79L17.59-3.79Q15.00-3.79 13.73-4.87Q12.46-5.95 12.46-8.15L12.46-8.15Q12.46-10.46 13.87-12.83Q15.29-15.21 17.78-17.18L17.78-17.18Q20.04-18.95 22.63-19.94Q25.22-20.92 27.72-20.92L27.72-20.92Q28.63-20.92 29.57-20.75Q30.50-20.59 31.37-20.25L31.37-20.25L30.26 5.05ZM64.54-4.75L64.54-4.75Q64.54-0.76 61.27 2.19Q58.01 5.14 53.50 5.38L53.50 5.38Q53.45 6.20 53.42 6.61Q53.40 7.01 53.40 7.30L53.40 7.30Q53.40 9.51 54.14 10.42Q54.89 11.33 56.86 11.33L56.86 11.33Q59.11 11.33 61.01 10.30Q62.90 9.27 65.35 6.49L65.35 6.49L66.98 6.49Q64.20 11.00 60.94 13.18Q57.67 15.37 53.78 15.37L53.78 15.37Q50.09 15.37 48.19 13.45Q46.30 11.53 46.30 7.73L46.30 7.73Q46.30 5.00 47.16 1.93Q48.02-1.15 49.46-3.55L49.46-3.55Q51.24-6.43 53.71-7.89Q56.18-9.35 59.26-9.35L59.26-9.35Q61.90-9.35 63.22-8.23Q64.54-7.10 64.54-4.75ZM59.64-6.81L59.64-6.81Q58.01-6.81 56.35-3.91Q54.70-1.00 53.88 3.08L53.88 3.08Q56.66 2.89 58.75 0.51Q60.84-1.87 60.84-4.84L60.84-4.84Q60.84-5.85 60.55-6.33Q60.26-6.81 59.64-6.81ZM72.12 6.97L72.12 6.97Q72.12 8.84 72.65 9.77Q73.18 10.71 74.52 10.71L74.52 10.71Q75.72 10.71 76.87 9.58Q78.02 8.45 78.46 6.73L78.46 6.73L78.46 6.49L80.81-4.51Q80.66-5.27 80.16-5.73Q79.66-6.19 78.84-6.19L78.84-6.19Q76.20-6.19 74.16-1.77Q72.12 2.65 72.12 6.97ZM81.24-6.71L81.24-6.71L81.24-6.52L83.59-17.56L90.70-18.52L85.18 7.40Q85.08 7.83 85.03 8.19Q84.98 8.55 84.98 8.93L84.98 8.93Q84.98 9.89 85.44 10.30Q85.90 10.71 86.95 10.71L86.95 10.71Q88.20 10.71 89.21 9.61Q90.22 8.50 90.84 6.49L90.84 6.49L92.86 6.49Q91.37 10.76 88.99 12.92Q86.62 15.08 83.21 15.08L83.21 15.08Q81.24 15.08 80.02 14.00Q78.79 12.92 78.50 10.95L78.50 10.95Q77.06 13.16 75.29 14.26Q73.51 15.37 71.40 15.37L71.40 15.37Q68.42 15.37 66.72 13.35Q65.02 11.33 65.02 7.64L65.02 7.64Q65.02 4.95 65.83 2.02Q66.65-0.91 68.09-3.31L68.09-3.31Q69.86-6.14 72.22-7.65Q74.57-9.16 77.35-9.16L77.35-9.16Q79.22-9.16 80.23-8.51Q81.24-7.87 81.24-6.71ZM102.79-15.31L102.79-15.31Q102.79-13.72 101.66-12.62Q100.54-11.51 98.95-11.51L98.95-11.51Q97.37-11.51 96.26-12.62Q95.16-13.72 95.16-15.31L95.16-15.31Q95.16-16.89 96.26-18.02Q97.37-19.15 98.95-19.15L98.95-19.15Q100.54-19.15 101.66-18.02Q102.79-16.89 102.79-15.31ZM90.55 9.61L90.55 9.61Q90.55 8.98 90.65 8.19Q90.74 7.40 90.94 6.49L90.94 6.49L94.20-8.92L101.11-8.92L97.66 7.40Q97.56 7.83 97.51 8.19Q97.46 8.55 97.46 8.93L97.46 8.93Q97.46 9.89 97.92 10.30Q98.38 10.71 99.43 10.71L99.43 10.71Q100.78 10.71 101.98 9.53Q103.18 8.36 103.75 6.49L103.75 6.49L105.77 6.49Q104.23 10.85 101.64 13.11Q99.05 15.37 95.69 15.37L95.69 15.37Q93.29 15.37 91.92 13.85Q90.55 12.34 90.55 9.61ZM119.35-6.71L119.35-6.71L119.35-6.38L119.88-8.92L126.79-8.92L123.34 7.40Q123.24 7.83 123.19 8.19Q123.14 8.55 123.14 8.93L123.14 8.93Q123.14 9.99 123.62 10.49Q124.10 11.00 125.11 11.00L125.11 11.00Q126.36 11.00 127.37 9.82Q128.38 8.65 129 6.49L129 6.49L131.02 6.49Q129.48 10.90 127.03 13.13Q124.58 15.37 121.37 15.37L121.37 15.37Q119.30 15.37 118.08 14.21Q116.86 13.06 116.66 10.95L116.66 10.95Q115.18 13.16 113.38 14.26Q111.58 15.37 109.51 15.37L109.51 15.37Q106.54 15.37 104.83 13.35Q103.13 11.33 103.13 7.64L103.13 7.64Q103.13 4.95 103.94 2.02Q104.76-0.91 106.20-3.31L106.20-3.31Q107.98-6.14 110.33-7.65Q112.68-9.16 115.46-9.16L115.46-9.16Q117.34-9.16 118.34-8.51Q119.35-7.87 119.35-6.71ZM116.62 6.49L118.92-4.36Q118.92-5.08 118.39-5.63Q117.86-6.19 116.95-6.19L116.95-6.19Q114.31-6.19 112.27-1.77Q110.23 2.65 110.23 6.97L110.23 6.97Q110.23 8.84 110.76 9.77Q111.29 10.71 112.63 10.71L112.63 10.71Q113.88 10.71 115.06 9.51Q116.23 8.31 116.62 6.49L116.62 6.49Z"/></g>
</svg>