<svg xmlns="http://www.w3.org/2000/svg" xmlns:xlink="http://www.w3.org/1999/xlink" version="1.1" width="1000" height="1000" viewBox="0 0 1000 1000" xml:space="preserve">
<desc>Created with Fabric.js 3.5.0</desc>
<defs>
</defs>
<rect x="0" y="0" width="100%" height="100%" fill="rgba(255,255,255,0)"/>
<g transform="matrix(1 0 0 1 516.5485 500)" style="" id="240839">
		
<path xml:space="preserve" font-family="Galada" font-size="151" style="stroke: none; stroke-width: 0; stroke-dasharray: none; stroke-linecap: butt; stroke-dashoffset: 0; stroke-linejoin: miter; stroke-miterlimit: 4; is-custom-font: none; font-file-url: none; fill: rgb(228,228,228); fill-rule: nonzero; opacity: 1; white-space: pre;" d="M-333.79-14.02L-325.03-55.09Q-331.22-51.77-338.16-42.64Q-345.11-33.50-352.21-19.31L-352.21-19.31Q-346.77-18.25-342.17-16.89Q-337.56-15.53-333.79-14.02L-333.79-14.02ZM-313.25-65.81L-313.25-65.81Q-310.08-65.81-306.91-65.29Q-303.74-64.76-301.32-63.70L-301.32-63.70L-325.03 47.44L-346.77 47.44L-335.14-7.38Q-340.43-9.79-345.11-11.08Q-349.79-12.36-355.38-12.81L-355.38-12.81Q-363.99 5.91-369.50 25.24Q-375.01 44.57-375.01 56.19L-375.01 56.19Q-375.01 58.91-374.48 60.95Q-373.95 62.99-372.89 64.65L-372.89 64.65Q-384.37 64.65-388.75 60.72Q-393.13 56.80-393.13 48.64L-393.13 48.64Q-393.13 38.53-387.01 21.61Q-380.90 4.70-370.93-12.81L-370.93-12.81Q-378.63-12.36-382.94-10.40Q-387.24-8.43-388.60-4.96L-388.60-4.96Q-387.99-4.96-387.31-3.38Q-386.64-1.79-386.64-0.28L-386.64-0.28Q-386.64 2.29-389.05 3.95Q-391.47 5.61-395.09 5.61L-395.09 5.61Q-399.32 5.61-401.89 3.27Q-404.45 0.93-404.45-3.15L-404.45-3.15Q-404.45-11.00-395.62-16.36Q-386.79-21.72-373.65-21.72L-373.65-21.72Q-372.14-21.72-370.18-21.65Q-368.21-21.57-365.80-21.27L-365.80-21.27Q-352.51-42.26-338.77-54.04Q-325.03-65.81-313.25-65.81ZM-288.79-55.24L-266.44-58.26L-277.76-5.11L-248.62-28.06L-233.67-28.06L-263.87-7.08Q-261.76-7.38-260.78-7.53Q-259.80-7.68-258.89-7.68L-258.89-7.68Q-251.19-7.68-246.73-2.85Q-242.28 1.98-242.28 9.99L-242.28 9.99Q-242.28 11.50-242.43 12.93Q-242.58 14.37-242.88 15.73L-242.88 15.73L-244.54 23.28Q-244.85 25.09-245.07 26.30Q-245.30 27.50-245.30 28.11L-245.30 28.11Q-245.30 30.98-243.87 32.34Q-242.43 33.69-239.41 33.69L-239.41 33.69Q-235.64 33.69-232.92 31.13Q-230.20 28.56-226.73 20.41L-226.73 20.41L-220.38 20.41Q-225.07 34.30-232.01 41.32Q-238.96 48.34-248.17 48.34L-248.17 48.34Q-257.38 48.34-262.29 43.89Q-267.19 39.43-267.19 31.13L-267.19 31.13Q-267.19 29.32-266.97 27.35Q-266.74 25.39-266.29 23.28L-266.29 23.28L-265.08 17.39Q-264.78 16.03-264.63 14.67Q-264.48 13.31-264.48 11.80L-264.48 11.80Q-264.48 8.18-265.84 6.36Q-267.19 4.55-269.91 4.55L-269.91 4.55Q-272.18 4.55-274.82 5.83Q-277.46 7.12-281.09 10.14L-281.09 10.14L-288.94 47.44L-310.68 47.44L-288.79-55.24ZM-179.31 22.22L-179.31 22.22Q-179.31 24.03-179.46 25.39Q-179.61 26.75-179.92 27.96L-179.92 27.96Q-176.90 26.14-174.03 24.18Q-171.16 22.22-169.04 20.41L-169.04 20.41L-162.70 20.41Q-167.38 25.84-173.05 30.45Q-178.71 35.05-185.81 39.28L-185.81 39.28Q-189.88 43.66-196.22 46.00Q-202.57 48.34-209.51 48.34L-209.51 48.34Q-219.63 48.34-225.59 42.83Q-231.56 37.32-231.56 29.01L-231.56 29.01Q-231.56 24.33-229.29 20.48Q-227.03 16.63-223.56 14.97L-223.56 14.97Q-218.42 5.76-213.97-4.74Q-209.51-15.23-204.98-29.73L-204.98-29.73L-182.63-32.75Q-182.18-21.42-181.58-12.06Q-180.97-2.70-180.07 8.33L-180.07 8.33Q-179.61 14.67-179.46 17.24Q-179.31 19.80-179.31 22.22ZM-204.08-13.42L-204.08-13.42Q-206.04-7.23-208.83-0.51Q-211.63 6.21-216.31 15.12L-216.31 15.12Q-214.65 15.88-213.74 17.24Q-212.83 18.59-212.83 20.41L-212.83 20.41Q-212.83 23.28-214.80 25.54Q-216.76 27.81-219.48 27.81L-219.48 27.81Q-220.99 27.81-222.05 27.28Q-223.10 26.75-223.56 25.84L-223.56 25.84Q-223.56 31.43-221.37 33.92Q-219.18 36.41-214.34 36.41L-214.34 36.41Q-208.15 36.41-204.68 32.79Q-201.21 29.16-201.21 22.37L-201.21 22.37Q-201.21 20.26-201.36 18.07Q-201.51 15.88-201.96 10.74L-201.96 10.74Q-202.72 3.65-203.17-1.79Q-203.62-7.23-204.08-13.42ZM-111.21-14.93L-111.21-14.93Q-111.21-2.39-121.48 6.89Q-131.75 16.18-145.94 16.93L-145.94 16.93Q-146.09 19.50-146.17 20.78Q-146.24 22.07-146.24 22.97L-146.24 22.97Q-146.24 29.92-143.90 32.79Q-141.56 35.66-135.37 35.66L-135.37 35.66Q-128.27 35.66-122.31 32.41Q-116.35 29.16-108.64 20.41L-108.64 20.41L-103.51 20.41Q-112.27 34.60-122.54 41.47Q-132.80 48.34-145.04 48.34L-145.04 48.34Q-156.66 48.34-162.63 42.30Q-168.59 36.26-168.59 24.33L-168.59 24.33Q-168.59 15.73-165.87 6.06Q-163.16-3.60-158.63-11.15L-158.63-11.15Q-153.04-20.21-145.26-24.82Q-137.49-29.42-127.82-29.42L-127.82-29.42Q-119.52-29.42-115.36-25.88Q-111.21-22.33-111.21-14.93ZM-126.61-21.42L-126.61-21.42Q-131.75-21.42-136.96-12.29Q-142.17-3.15-144.73 9.69L-144.73 9.69Q-135.98 9.08-129.41 1.61Q-122.84-5.87-122.84-15.23L-122.84-15.23Q-122.84-18.40-123.74-19.91Q-124.65-21.42-126.61-21.42ZM-64.10 22.22L-64.10 22.22Q-64.10 24.03-64.25 25.39Q-64.40 26.75-64.70 27.96L-64.70 27.96Q-61.68 26.14-58.81 24.18Q-55.95 22.22-53.83 20.41L-53.83 20.41L-47.49 20.41Q-52.17 25.84-57.83 30.45Q-63.50 35.05-70.59 39.28L-70.59 39.28Q-74.67 43.66-81.01 46.00Q-87.35 48.34-94.30 48.34L-94.30 48.34Q-104.42 48.34-110.38 42.83Q-116.35 37.32-116.35 29.01L-116.35 29.01Q-116.35 24.33-114.08 20.48Q-111.82 16.63-108.34 14.97L-108.34 14.97Q-103.21 5.76-98.75-4.74Q-94.30-15.23-89.77-29.73L-89.77-29.73L-67.42-32.75Q-66.97-21.42-66.36-12.06Q-65.76-2.70-64.85 8.33L-64.85 8.33Q-64.40 14.67-64.25 17.24Q-64.10 19.80-64.10 22.22ZM-88.86-13.42L-88.86-13.42Q-90.83-7.23-93.62-0.51Q-96.41 6.21-101.09 15.12L-101.09 15.12Q-99.43 15.88-98.53 17.24Q-97.62 18.59-97.62 20.41L-97.62 20.41Q-97.62 23.28-99.58 25.54Q-101.55 27.81-104.27 27.81L-104.27 27.81Q-105.78 27.81-106.83 27.28Q-107.89 26.75-108.34 25.84L-108.34 25.84Q-108.34 31.43-106.15 33.92Q-103.96 36.41-99.13 36.41L-99.13 36.41Q-92.94 36.41-89.47 32.79Q-85.99 29.16-85.99 22.37L-85.99 22.37Q-85.99 20.26-86.15 18.07Q-86.30 15.88-86.75 10.74L-86.75 10.74Q-87.50 3.65-87.96-1.79Q-88.41-7.23-88.86-13.42ZM-14.27 22.22L-14.27 22.22Q-14.27 24.03-14.42 25.39Q-14.57 26.75-14.87 27.96L-14.87 27.96Q-11.85 26.14-8.98 24.18Q-6.12 22.22-4.00 20.41L-4.00 20.41L2.34 20.41Q-2.34 25.84-8.00 30.45Q-13.67 35.05-20.76 39.28L-20.76 39.28Q-24.84 43.66-31.18 46.00Q-37.52 48.34-44.47 48.34L-44.47 48.34Q-54.59 48.34-60.55 42.83Q-66.52 37.32-66.52 29.01L-66.52 29.01Q-66.52 24.33-64.25 20.48Q-61.99 16.63-58.51 14.97L-58.51 14.97Q-53.38 5.76-48.92-4.74Q-44.47-15.23-39.94-29.73L-39.94-29.73L-17.59-32.75Q-17.14-21.42-16.53-12.06Q-15.93-2.70-15.02 8.33L-15.02 8.33Q-14.57 14.67-14.42 17.24Q-14.27 19.80-14.27 22.22ZM-39.03-13.42L-39.03-13.42Q-41.00-7.23-43.79-0.51Q-46.58 6.21-51.26 15.12L-51.26 15.12Q-49.60 15.88-48.70 17.24Q-47.79 18.59-47.79 20.41L-47.79 20.41Q-47.79 23.28-49.75 25.54Q-51.72 27.81-54.44 27.81L-54.44 27.81Q-55.95 27.81-57.00 27.28Q-58.06 26.75-58.51 25.84L-58.51 25.84Q-58.51 31.43-56.32 33.92Q-54.13 36.41-49.30 36.41L-49.30 36.41Q-43.11 36.41-39.64 32.79Q-36.16 29.16-36.16 22.37L-36.16 22.37Q-36.16 20.26-36.32 18.07Q-36.47 15.88-36.92 10.74L-36.92 10.74Q-37.67 3.65-38.13-1.79Q-38.58-7.23-39.03-13.42ZM95.21 15.88L128.43-63.70L150.17-63.70L134.31 47.44L112.57 47.44L122.23-20.36L93.85 47.44L73.16 47.44L76.18-20.67L50.96 47.44L38.88 47.44L77.24-56.30Q65.61-52.38 59.42-43.62Q53.23-34.86 53.23-22.33L53.23-22.33Q53.23-19.31 53.60-17.12Q53.98-14.93 54.89-13.12L54.89-13.12Q55.19-12.51 55.27-12.29Q55.34-12.06 55.34-11.91L55.34-11.91Q47.19-11.91 43.19-15.31Q39.18-18.70 39.18-25.65L39.18-25.65Q39.18-32.90 43.64-40.37Q48.09-47.85 55.95-54.04L55.95-54.04Q63.04-59.62 71.20-62.72Q79.35-65.81 87.20-65.81L87.20-65.81Q90.07-65.81 93.02-65.29Q95.96-64.76 98.68-63.70L98.68-63.70L95.21 15.88ZM203.02-14.93L203.02-14.93Q203.02-2.39 192.75 6.89Q182.48 16.18 168.29 16.93L168.29 16.93Q168.14 19.50 168.06 20.78Q167.99 22.07 167.99 22.97L167.99 22.97Q167.99 29.92 170.33 32.79Q172.67 35.66 178.86 35.66L178.86 35.66Q185.96 35.66 191.92 32.41Q197.89 29.16 205.59 20.41L205.59 20.41L210.72 20.41Q201.96 34.60 191.69 41.47Q181.43 48.34 169.20 48.34L169.20 48.34Q157.57 48.34 151.60 42.30Q145.64 36.26 145.64 24.33L145.64 24.33Q145.64 15.73 148.36 6.06Q151.08-3.60 155.61-11.15L155.61-11.15Q161.19-20.21 168.97-24.82Q176.75-29.42 186.41-29.42L186.41-29.42Q194.71-29.42 198.87-25.88Q203.02-22.33 203.02-14.93ZM187.62-21.42L187.62-21.42Q182.48-21.42 177.27-12.29Q172.06-3.15 169.50 9.69L169.50 9.69Q178.26 9.08 184.82 1.61Q191.39-5.87 191.39-15.23L191.39-15.23Q191.39-18.40 190.49-19.91Q189.58-21.42 187.62-21.42ZM226.88 21.92L226.88 21.92Q226.88 27.81 228.54 30.75Q230.20 33.69 234.43 33.69L234.43 33.69Q238.20 33.69 241.83 30.15Q245.45 26.60 246.81 21.16L246.81 21.16L246.81 20.41L254.21-14.17Q253.76-16.59 252.17-18.02Q250.58-19.46 248.02-19.46L248.02-19.46Q239.71-19.46 233.30-5.57Q226.88 8.33 226.88 21.92ZM255.57-21.12L255.57-21.12L255.57-20.51L262.97-55.24L285.31-58.26L267.95 23.28Q267.65 24.63 267.50 25.77Q267.35 26.90 267.35 28.11L267.35 28.11Q267.35 31.13 268.78 32.41Q270.21 33.69 273.54 33.69L273.54 33.69Q277.46 33.69 280.63 30.22Q283.80 26.75 285.77 20.41L285.77 20.41L292.11 20.41Q287.43 33.85 279.95 40.64Q272.48 47.44 261.76 47.44L261.76 47.44Q255.57 47.44 251.72 44.04Q247.87 40.64 246.96 34.45L246.96 34.45Q242.43 41.40 236.84 44.87Q231.26 48.34 224.61 48.34L224.61 48.34Q215.25 48.34 209.89 42.00Q204.53 35.66 204.53 24.03L204.53 24.03Q204.53 15.57 207.10 6.36Q209.66-2.85 214.19-10.40L214.19-10.40Q219.78-19.31 227.18-24.06Q234.58-28.82 243.34-28.82L243.34-28.82Q249.23-28.82 252.40-26.78Q255.57-24.74 255.57-21.12ZM323.37-48.15L323.37-48.15Q323.37-43.16 319.82-39.69Q316.27-36.22 311.29-36.22L311.29-36.22Q306.30-36.22 302.83-39.69Q299.36-43.16 299.36-48.15L299.36-48.15Q299.36-53.13 302.83-56.68Q306.30-60.23 311.29-60.23L311.29-60.23Q316.27-60.23 319.82-56.68Q323.37-53.13 323.37-48.15ZM284.86 30.22L284.86 30.22Q284.86 28.26 285.16 25.77Q285.47 23.28 286.07 20.41L286.07 20.41L296.34-28.06L318.08-28.06L307.21 23.28Q306.91 24.63 306.76 25.77Q306.61 26.90 306.61 28.11L306.61 28.11Q306.61 31.13 308.04 32.41Q309.47 33.69 312.80 33.69L312.80 33.69Q317.02 33.69 320.80 29.99Q324.57 26.30 326.39 20.41L326.39 20.41L332.73 20.41Q327.90 34.15 319.74 41.24Q311.59 48.34 301.02 48.34L301.02 48.34Q293.47 48.34 289.17 43.58Q284.86 38.83 284.86 30.22ZM375.46-21.12L375.46-21.12L375.46-20.06L377.12-28.06L398.87-28.06L387.99 23.28Q387.69 24.63 387.54 25.77Q387.39 26.90 387.39 28.11L387.39 28.11Q387.39 31.43 388.90 33.01Q390.41 34.60 393.58 34.60L393.58 34.60Q397.51 34.60 400.68 30.90Q403.85 27.20 405.81 20.41L405.81 20.41L412.15 20.41Q407.32 34.30 399.62 41.32Q391.92 48.34 381.80 48.34L381.80 48.34Q375.31 48.34 371.46 44.72Q367.61 41.09 367.01 34.45L367.01 34.45Q362.32 41.40 356.66 44.87Q351.00 48.34 344.51 48.34L344.51 48.34Q335.14 48.34 329.78 42.00Q324.42 35.66 324.42 24.03L324.42 24.03Q324.42 15.57 326.99 6.36Q329.56-2.85 334.09-10.40L334.09-10.40Q339.67-19.31 347.07-24.06Q354.47-28.82 363.23-28.82L363.23-28.82Q369.12-28.82 372.29-26.78Q375.46-24.74 375.46-21.12ZM366.85 20.41L374.10-13.72Q374.10-15.98 372.44-17.72Q370.78-19.46 367.91-19.46L367.91-19.46Q359.61-19.46 353.19-5.57Q346.77 8.33 346.77 21.92L346.77 21.92Q346.77 27.81 348.43 30.75Q350.09 33.69 354.32 33.69L354.32 33.69Q358.25 33.69 361.95 29.92Q365.65 26.14 366.85 20.41L366.85 20.41Z"/></g>
</svg>